<svg width="800" height="800" viewBox="0 0 100 100" fill="#fff"><path d="M50.3 14.211c-1.208 0-2.214 1.006-2.239 2.238 0 .101.025.176.1.252.076.075.152.1.252.1h1.51v1.007c0 .1.05.2.1.251s.15.1.251.1c.202 0 .352-.15.352-.351v-1.006h1.51c.2 0 .352-.151.352-.353.05-1.207-.956-2.213-2.188-2.238m1.358-.905v-1.409h.804v1.409c0 .1.05.2.101.251.05.05.151.1.252.1h.905V9.433h-.905a.344.344 0 0 0-.352.353v1.408h-.805V7.27a.344.344 0 0 0-.352-.353h-2.012a.344.344 0 0 0-.352.353v3.923h-.805V9.785a.344.344 0 0 0-.352-.353h-.906v4.226h.906c.2 0 .352-.151.352-.352v-1.409h.804v1.409c0 .1.05.2.101.251.05.05.151.1.252.1h2.012c.2 0 .352-.15.352-.351M45.27 9.432a.344.344 0 0 0-.353.353v3.52c0 .101.026.177.101.252s.15.1.252.1h.905V9.433zm10.06 4.226c.2 0 .352-.151.352-.352V9.785a.344.344 0 0 0-.352-.353h-.906v4.226z"/></svg>